<svg xmlns="http://www.w3.org/2000/svg" width="1em" height="1em" viewBox="0 0 24 24"><path fill="currentColor" d="m12 21.35-1.45-1.32C5.4 15.36 2 12.28 2 8.5 2 5.42 4.42 3 7.5 3c1.74 0 3.41.81 4.5 2.09l.5.58-2 2.5 2.5-1-.5 3.5 2-2.5C16.09 5.81 17.76 5 19.5 5c3.08 0 5.5 2.42 5.5 5.5 0 3.78-3.4 6.86-8.55 11.54zM9.5 5C7.57 5 6 6.57 6 8.5c0 2.88 2.62 5.27 6.36 8.65l2.14 1.87c2.1-1.83 3.5-3.21 4.42-4.36L16.5 17.5 17 14l-2.5 1 .5-2.5-2 2c.95-1.27 1-2.55 1-4 0-.68-.11-1.33-.31-1.94-.55-1.69-1.95-2.91-3.69-3.06h-.5z"/></svg>